REM DIRINDEX 1\2,1\3,1\4,1\5
REM DIRNAME folder01,folder02,folder03,folder04,folder05
TITLE ""
FILE "1800_121.mp3" MP3
  TRACK 01 AUDIO
    TITLE "2:cjc044_3509"
    INDEX 01 00:00:00
  TRACK 02 AUDIO
    TITLE "0:"
    INDEX 01 00:01:03
  TRACK 03 AUDIO
    TITLE "3:cjc044_3510"
    INDEX 01 00:01:66
  TRACK 04 AUDIO
    TITLE "0:"
    INDEX 01 00:03:00
  TRACK 05 AUDIO
    TITLE "4:cjc044_3511"
    INDEX 01 00:03:57
  TRACK 06 AUDIO
    TITLE "0:"
    INDEX 01 00:04:68
  TRACK 07 AUDIO
    TITLE "5:cjc044_3512"
    INDEX 01 00:05:50
  TRACK 08 AUDIO
    TITLE "0:"
    INDEX 01 00:08:62
  TRACK 09 AUDIO
    TITLE "2:cjc044_3513"
    INDEX 01 00:10:55
  TRACK 10 AUDIO
    TITLE "0:"
    INDEX 01 00:11:68
  TRACK 11 AUDIO
    TITLE "3:cjc044_3514"
    INDEX 01 00:12:50
  TRACK 12 AUDIO
    TITLE "0:"
    INDEX 01 00:14:49
  TRACK 13 AUDIO
    TITLE "4:cjc044_3515"
    INDEX 01 00:15:42
  TRACK 14 AUDIO
    TITLE "0:"
    INDEX 01 00:16:55
  TRACK 15 AUDIO
    TITLE "5:cjc044_3516"
    INDEX 01 00:17:37
  TRACK 16 AUDIO
    TITLE "0:"
    INDEX 01 00:20:22
  TRACK 17 AUDIO
    TITLE "2:cjc044_3517"
    INDEX 01 00:22:05
  TRACK 18 AUDIO
    TITLE "0:"
    INDEX 01 00:23:10
  TRACK 19 AUDIO
    TITLE "3:cjc044_3518"
    INDEX 01 00:23:71
  TRACK 20 AUDIO
    TITLE "0:"
    INDEX 01 00:25:19
  TRACK 21 AUDIO
    TITLE "4:cjc044_3519"
    INDEX 01 00:25:74
  TRACK 22 AUDIO
    TITLE "0:"
    INDEX 01 00:27:04
  TRACK 23 AUDIO
    TITLE "5:cjc044_3520"
    INDEX 01 00:27:65
  TRACK 24 AUDIO
    TITLE "0:"
    INDEX 01 00:31:14
  TRACK 25 AUDIO
    TITLE "2:cjc044_3521"
    INDEX 01 00:32:74
  TRACK 26 AUDIO
    TITLE "0:"
    INDEX 01 00:34:12
  TRACK 27 AUDIO
    TITLE "3:cjc044_3522"
    INDEX 01 00:34:71
  TRACK 28 AUDIO
    TITLE "0:"
    INDEX 01 00:36:13
  TRACK 29 AUDIO
    TITLE "4:cjc044_3523"
    INDEX 01 00:37:01
  TRACK 30 AUDIO
    TITLE "0:"
    INDEX 01 00:38:16
  TRACK 31 AUDIO
    TITLE "5:cjc044_3524"
    INDEX 01 00:38:73
  TRACK 32 AUDIO
    TITLE "0:"
    INDEX 01 00:42:37
  TRACK 33 AUDIO
    TITLE "2:cjc044_3525"
    INDEX 01 00:44:28
  TRACK 34 AUDIO
    TITLE "0:"
    INDEX 01 00:45:49
  TRACK 35 AUDIO
    TITLE "3:cjc044_3526"
    INDEX 01 00:46:35
  TRACK 36 AUDIO
    TITLE "0:"
    INDEX 01 00:47:50
  TRACK 37 AUDIO
    TITLE "4:cjc044_3527"
    INDEX 01 00:48:32
  TRACK 38 AUDIO
    TITLE "0:"
    INDEX 01 00:49:53
  TRACK 39 AUDIO
    TITLE "5:cjc044_3528"
    INDEX 01 00:50:37
  TRACK 40 AUDIO
    TITLE "0:"
    INDEX 01 00:53:35
  TRACK 41 AUDIO
    TITLE "2:cjc044_3529"
    INDEX 01 00:55:22
  TRACK 42 AUDIO
    TITLE "0:"
    INDEX 01 00:56:31
  TRACK 43 AUDIO
    TITLE "3:cjc044_3530"
    INDEX 01 00:57:17
  TRACK 44 AUDIO
    TITLE "0:"
    INDEX 01 00:58:09
  TRACK 45 AUDIO
    TITLE "4:cjc044_3531"
    INDEX 01 00:58:71
  TRACK 46 AUDIO
    TITLE "0:"
    INDEX 01 01:00:04
  TRACK 47 AUDIO
    TITLE "5:cjc044_3532"
    INDEX 01 01:00:68
  TRACK 48 AUDIO
    TITLE "0:"
    INDEX 01 01:03:55
  TRACK 49 AUDIO
    TITLE "2:cjc044_3533"
    INDEX 01 01:05:42
  TRACK 50 AUDIO
    TITLE "0:"
    INDEX 01 01:06:38
  TRACK 51 AUDIO
    TITLE "3:cjc044_3534"
    INDEX 01 01:07:19
  TRACK 52 AUDIO
    TITLE "0:"
    INDEX 01 01:08:29
  TRACK 53 AUDIO
    TITLE "4:cjc044_3535"
    INDEX 01 01:09:16
  TRACK 54 AUDIO
    TITLE "0:"
    INDEX 01 01:10:16
  TRACK 55 AUDIO
    TITLE "5:cjc044_3536"
    INDEX 01 01:10:71
  TRACK 56 AUDIO
    TITLE "0:"
    INDEX 01 01:14:08
  TRACK 57 AUDIO
    TITLE "2:cjc044_3537"
    INDEX 01 01:15:68
  TRACK 58 AUDIO
    TITLE "0:"
    INDEX 01 01:17:12
  TRACK 59 AUDIO
    TITLE "3:cjc044_3538"
    INDEX 01 01:17:69
  TRACK 60 AUDIO
    TITLE "0:"
    INDEX 01 01:19:07
  TRACK 61 AUDIO
    TITLE "4:cjc044_3539"
    INDEX 01 01:19:64
  TRACK 62 AUDIO
    TITLE "0:"
    INDEX 01 01:21:06
  TRACK 63 AUDIO
    TITLE "5:cjc044_3540"
    INDEX 01 01:21:67
  TRACK 64 AUDIO
    TITLE "0:"
    INDEX 01 01:24:71
  TRACK 65 AUDIO
    TITLE "2:cjc044_3541"
    INDEX 01 01:26:54
  TRACK 66 AUDIO
    TITLE "0:"
    INDEX 01 01:27:59
  TRACK 67 AUDIO
    TITLE "3:cjc044_3542"
    INDEX 01 01:28:45
  TRACK 68 AUDIO
    TITLE "0:"
    INDEX 01 01:29:62
  TRACK 69 AUDIO
    TITLE "4:cjc044_3543"
    INDEX 01 01:30:46
  TRACK 70 AUDIO
    TITLE "0:"
    INDEX 01 01:31:51
  TRACK 71 AUDIO
    TITLE "5:cjc044_3544"
    INDEX 01 01:32:25
  TRACK 72 AUDIO
    TITLE "0:"
    INDEX 01 01:36:09
  TRACK 73 AUDIO
    TITLE "2:cjc044_3545"
    INDEX 01 01:37:66
  TRACK 74 AUDIO
    TITLE "0:"
    INDEX 01 01:39:02
  TRACK 75 AUDIO
    TITLE "3:cjc044_3546"
    INDEX 01 01:39:55
  TRACK 76 AUDIO
    TITLE "0:"
    INDEX 01 01:41:59
  TRACK 77 AUDIO
    TITLE "4:cjc044_3547"
    INDEX 01 01:42:43
  TRACK 78 AUDIO
    TITLE "0:"
    INDEX 01 01:43:54
  TRACK 79 AUDIO
    TITLE "5:cjc044_3548"
    INDEX 01 01:44:36
  TRACK 80 AUDIO
    TITLE "0:"
    INDEX 01 01:47:27
